<?xml version="1.0" encoding="utf-8"?>
<!-- Generator: Adobe Illustrator 15.0.0, SVG Export Plug-In . SVG Version: 6.00 Build 0)  -->
<!DOCTYPE svg PUBLIC "-//W3C//DTD SVG 1.1//EN" "http://www.w3.org/Graphics/SVG/1.1/DTD/svg11.dtd">
<svg version="1.1"
	 id="svg4423" xmlns:sodipodi="http://sodipodi.sourceforge.net/DTD/sodipodi-0.dtd" sodipodi:docname="10H.svg" inkscape:version="0.48.1 r9760" xmlns:dc="http://purl.org/dc/elements/1.1/" xmlns:cc="http://creativecommons.org/ns#" xmlns:rdf="http://www.w3.org/1999/02/22-rdf-syntax-ns#" xmlns:svg="http://www.w3.org/2000/svg" xmlns:inkscape="http://www.inkscape.org/namespaces/inkscape"
	 xmlns="http://www.w3.org/2000/svg" xmlns:xlink="http://www.w3.org/1999/xlink" x="0px" y="0px" width="224.225px"
	 height="312.807px" viewBox="0 0 224.225 312.807" enable-background="new 0 0 224.225 312.807" xml:space="preserve">
<sodipodi:namedview  inkscape:window-x="705" inkscape:current-layer="layer1" inkscape:document-units="px" inkscape:window-height="925" borderopacity="1.0" id="base" inkscape:zoom="0.69999999" inkscape:cx="126.73995" inkscape:window-width="735" pagecolor="#ffffff" inkscape:cy="451.52252" inkscape:snap-page="true" inkscape:snap-global="true" inkscape:snap-bbox="true" bordercolor="#666666" showgrid="false" inkscape:pageopacity="0.0" inkscape:pageshadow="2" inkscape:window-y="60" inkscape:window-maximized="0">
	</sodipodi:namedview>
<g id="layer1" inkscape:groupmode="layer" inkscape:label="10H">
	<g id="g8970" transform="translate(-1760.0774,-113.66123)">
		<g id="g8891">
			<g id="g8795" transform="translate(-4683.8753,2918.9368)">
				<path id="rect6365" fill="#FFFFFF" stroke="#000000" stroke-width="0.9967" d="M6455.081-2804.777h201.97
					c5.871,0,10.629,4.759,10.629,10.63v290.55c0,5.871-4.758,10.629-10.629,10.629h-201.969c-5.871,0-10.63-4.758-10.63-10.629
					v-290.55C6444.451-2800.018,6449.211-2804.777,6455.081-2804.777z"/>
				<g id="g8612" transform="matrix(0.30106207,0,0,0.30106207,5267.5599,-1982.7028)">
					<path id="path7216" inkscape:connector-curvature="0" sodipodi:nodetypes="ccccc" fill="#D40000" d="M3934.477-2579.965
						v-104.652h10.331v104.652H3934.477z"/>
					<path id="rect7235" inkscape:connector-curvature="0" fill="#D40000" d="M3975.428-2684.617
						c-9.945,0-17.941,8.924-17.941,20.004v64.644c0,11.081,7.996,20.004,17.941,20.004h5.797c9.945,0,17.957-8.924,17.957-20.004
						v-64.644c0-11.081-8.012-20.004-17.957-20.004H3975.428z M3978.423-2674.727c5.874,0,10.6,4.441,10.6,9.971v65.51
						c0,5.531-4.726,9.988-10.6,9.988c-5.875,0-10.601-4.457-10.601-9.988v-65.51
						C3967.822-2670.286,3972.548-2674.727,3978.423-2674.727z"/>
					<g id="g7984" transform="matrix(-0.50404239,0,0,-0.50404239,7403.6384,312.07817)">
						<path id="path7986" inkscape:connector-curvature="0" sodipodi:nodetypes="ccccc" fill="#D40000" d="M5512.176,4280.544
							v-207.633h20.503v207.633H5512.176L5512.176,4280.544z"/>
						<path id="path7988" inkscape:connector-curvature="0" fill="#D40000" d="M5593.43,4072.911
							c-19.731,0-35.588,17.71-35.588,39.694v128.245c0,21.983,15.857,39.694,35.588,39.694h11.507
							c19.731,0,35.626-17.71,35.626-39.694v-128.245c0-21.983-15.896-39.694-35.626-39.694H5593.43z M5599.363,4092.54
							c11.661,0,21.044,8.816,21.044,19.782v129.97c0,10.966-9.383,19.808-21.044,19.808c-11.648,0-21.031-8.842-21.031-19.808
							v-129.97C5578.333,4101.356,5587.715,4092.54,5599.363,4092.54z"/>
					</g>
				</g>
			</g>
		</g>
		<path id="path8644" inkscape:connector-curvature="0" sodipodi:nodetypes="cccccccc" fill="#D40000" d="M1769.101,174.3
			c-1.583-3.474-1.757-9.405,2.972-10.208c3.562-0.458,5.012,1.197,5.3,3.742c0.142,0.742,0.562,0.787,0.695-0.06
			c0.204-2.609,2.786-4.133,4.807-3.75c5.526,0.945,5.204,7.028,3.397,11.155c-2.73,5.479-5.601,8.938-8.244,14.452
			C1774.989,183.891,1771.519,179.227,1769.101,174.3L1769.101,174.3z"/>
		<path id="path8568" inkscape:connector-curvature="0" sodipodi:nodetypes="ccccsccssc" fill="#D40000" d="M1803.605,142.483
			c7.144-0.475,10.867,5.628,11.595,10.438c0.435,0.764,0.671,0.549,0.837-0.042c0.35-6.176,5.875-11.222,10.993-10.53
			c8.327,0.107,13.389,9.375,11.966,17.219c-1.738,9.581-6.898,15.352-10.809,21.293c-4.422,6.152-10.373,15.039-12.289,19.316
			c0,0-6.049-9.204-13.918-20.029c-5.262-7.238-9.474-15.082-9.864-21.835C1791.667,150.595,1794.834,143.679,1803.605,142.483
			L1803.605,142.483z"/>
		<path id="path8570" inkscape:connector-curvature="0" sodipodi:nodetypes="ccccsccssc" fill="#D40000" d="M1859.787,175.148
			c7.145-0.474,10.869,5.628,11.596,10.438c0.435,0.765,0.67,0.549,0.837-0.042c0.35-6.175,5.875-11.221,10.992-10.53
			c8.328,0.107,13.392,9.376,11.967,17.219c-1.737,9.582-6.897,15.352-10.807,21.293c-4.422,6.152-10.373,15.04-12.292,19.317
			c0,0-6.048-9.205-13.917-20.03c-5.262-7.238-9.473-15.082-9.864-21.835C1847.851,183.26,1851.017,176.344,1859.787,175.148
			L1859.787,175.148z"/>
		<path id="path8572" inkscape:connector-curvature="0" sodipodi:nodetypes="ccccsccssc" fill="#D40000" d="M1915.136,142.483
			c7.146-0.475,10.869,5.628,11.597,10.438c0.434,0.764,0.67,0.549,0.836-0.042c0.35-6.176,5.875-11.222,10.991-10.53
			c8.328,0.107,13.392,9.375,11.968,17.219c-1.738,9.581-6.898,15.352-10.808,21.293c-4.422,6.152-10.373,15.039-12.291,19.316
			c0,0-6.049-9.204-13.918-20.029c-5.262-7.238-9.473-15.082-9.862-21.835C1903.2,150.595,1906.368,143.679,1915.136,142.483
			L1915.136,142.483z"/>
		<path id="path8574" inkscape:connector-curvature="0" sodipodi:nodetypes="ccccsccssc" fill="#D40000" d="M1915.136,207.814
			c7.146-0.475,10.869,5.627,11.597,10.438c0.434,0.764,0.67,0.548,0.836-0.043c0.35-6.175,5.875-11.221,10.991-10.53
			c8.328,0.107,13.392,9.376,11.968,17.219c-1.738,9.582-6.898,15.352-10.808,21.293c-4.422,6.153-10.373,15.04-12.291,19.317
			c0,0-6.049-9.204-13.918-20.029c-5.262-7.239-9.473-15.083-9.862-21.836C1903.2,215.927,1906.368,209.01,1915.136,207.814
			L1915.136,207.814z"/>
		<path id="path8576" inkscape:connector-curvature="0" sodipodi:nodetypes="ccccsccssc" fill="#D40000" d="M1803.605,207.814
			c7.144-0.475,10.867,5.627,11.595,10.438c0.435,0.764,0.671,0.548,0.837-0.043c0.35-6.175,5.875-11.221,10.993-10.53
			c8.327,0.107,13.389,9.376,11.966,17.219c-1.738,9.582-6.898,15.352-10.809,21.293c-4.422,6.153-10.373,15.04-12.289,19.317
			c0,0-6.049-9.204-13.918-20.029c-5.262-7.239-9.474-15.083-9.864-21.836C1791.667,215.927,1794.834,209.01,1803.605,207.814
			L1803.605,207.814z"/>
		<path id="path8596" inkscape:connector-curvature="0" sodipodi:nodetypes="ccccsccssc" fill="#D40000" d="M1915.136,332.203
			c7.146,0.477,10.869-5.627,11.597-10.438c0.434-0.764,0.67-0.549,0.836,0.043c0.35,6.174,5.875,11.221,10.991,10.529
			c8.328-0.107,13.392-9.375,11.968-17.219c-1.738-9.58-6.898-15.35-10.808-21.293c-4.422-6.152-10.373-15.039-12.291-19.316
			c0,0-6.049,9.205-13.918,20.029c-5.262,7.238-9.473,15.084-9.862,21.836C1903.2,324.092,1906.368,331.01,1915.136,332.203
			L1915.136,332.203z"/>
		<path id="path8598" inkscape:connector-curvature="0" sodipodi:nodetypes="ccccsccssc" fill="#D40000" d="M1915.136,397.311
			c7.146,0.475,10.869-5.627,11.597-10.439c0.434-0.764,0.67-0.549,0.836,0.045c0.35,6.174,5.875,11.221,10.991,10.527
			c8.328-0.105,13.392-9.375,11.968-17.219c-1.738-9.58-6.898-15.35-10.808-21.293c-4.422-6.152-10.373-15.039-12.291-19.316
			c0,0-6.049,9.205-13.918,20.029c-5.262,7.238-9.473,15.082-9.862,21.836C1903.2,389.196,1906.368,396.114,1915.136,397.311
			L1915.136,397.311z"/>
		<path id="path8600" inkscape:connector-curvature="0" sodipodi:nodetypes="ccccsccssc" fill="#D40000" d="M1859.32,364.758
			c7.144,0.475,10.867-5.627,11.595-10.439c0.435-0.764,0.671-0.549,0.837,0.043c0.35,6.174,5.875,11.223,10.993,10.529
			c8.327-0.107,13.389-9.375,11.967-17.219c-1.738-9.58-6.899-15.35-10.81-21.293c-4.422-6.152-10.373-15.039-12.289-19.316
			c0,0-6.05,9.205-13.918,20.029c-5.263,7.238-9.474,15.084-9.864,21.836C1847.382,356.645,1850.549,363.563,1859.32,364.758
			L1859.32,364.758z"/>
		<path id="path8602" inkscape:connector-curvature="0" sodipodi:nodetypes="ccccsccssc" fill="#D40000" d="M1803.605,332.203
			c7.144,0.477,10.867-5.627,11.595-10.438c0.435-0.764,0.671-0.549,0.837,0.043c0.35,6.174,5.875,11.221,10.993,10.529
			c8.327-0.107,13.389-9.375,11.966-17.219c-1.738-9.58-6.898-15.35-10.809-21.293c-4.422-6.152-10.373-15.039-12.289-19.316
			c0,0-6.049,9.205-13.918,20.029c-5.262,7.238-9.474,15.084-9.864,21.836C1791.667,324.092,1794.834,331.01,1803.605,332.203
			L1803.605,332.203z"/>
		<path id="path8604" inkscape:connector-curvature="0" sodipodi:nodetypes="ccccsccssc" fill="#D40000" d="M1803.605,397.311
			c7.144,0.475,10.867-5.627,11.595-10.439c0.435-0.764,0.671-0.549,0.837,0.045c0.35,6.174,5.875,11.221,10.993,10.527
			c8.327-0.105,13.389-9.375,11.966-17.219c-1.738-9.58-6.898-15.35-10.809-21.293c-4.422-6.152-10.373-15.039-12.289-19.316
			c0,0-6.049,9.205-13.918,20.029c-5.262,7.238-9.474,15.082-9.864,21.836C1791.667,389.196,1794.834,396.114,1803.605,397.311
			L1803.605,397.311z"/>
		<path id="path8660" inkscape:connector-curvature="0" sodipodi:nodetypes="cccccccc" fill="#D40000" d="M1957.917,365.156
			c-1.582,3.475-1.756,9.404,2.974,10.207c3.561,0.459,5.012-1.195,5.299-3.738c0.143-0.744,0.562-0.789,0.695,0.057
			c0.202,2.609,2.787,4.133,4.807,3.75c5.524-0.945,5.203-7.027,3.397-11.154c-2.731-5.48-5.602-8.938-8.246-14.453
			C1963.804,355.567,1960.334,360.231,1957.917,365.156L1957.917,365.156z"/>
	</g>
</g>
</svg>
