<?xml version="1.0" encoding="utf-8"?>
<!-- Generator: Adobe Illustrator 15.0.0, SVG Export Plug-In . SVG Version: 6.00 Build 0)  -->
<!DOCTYPE svg PUBLIC "-//W3C//DTD SVG 1.1//EN" "http://www.w3.org/Graphics/SVG/1.1/DTD/svg11.dtd">
<svg version="1.1"
	 id="svg4423" xmlns:sodipodi="http://sodipodi.sourceforge.net/DTD/sodipodi-0.dtd" sodipodi:docname="6H.svg" inkscape:version="0.48.1 r9760" xmlns:dc="http://purl.org/dc/elements/1.1/" xmlns:cc="http://creativecommons.org/ns#" xmlns:rdf="http://www.w3.org/1999/02/22-rdf-syntax-ns#" xmlns:svg="http://www.w3.org/2000/svg" xmlns:inkscape="http://www.inkscape.org/namespaces/inkscape"
	 xmlns="http://www.w3.org/2000/svg" xmlns:xlink="http://www.w3.org/1999/xlink" x="0px" y="0px" width="224.225px"
	 height="312.809px" viewBox="0 0 224.225 312.809" enable-background="new 0 0 224.225 312.809" xml:space="preserve">
<sodipodi:namedview  inkscape:window-x="1105" inkscape:current-layer="layer1" inkscape:document-units="px" inkscape:window-height="925" borderopacity="1.0" id="base" inkscape:zoom="0.49497474" inkscape:cx="40.510903" inkscape:window-width="735" pagecolor="#ffffff" inkscape:cy="601.70801" inkscape:snap-page="true" inkscape:snap-global="true" inkscape:snap-bbox="true" bordercolor="#666666" showgrid="false" inkscape:pageopacity="0.0" inkscape:pageshadow="2" inkscape:window-y="41" inkscape:window-maximized="0">
	</sodipodi:namedview>
<g id="layer1" inkscape:groupmode="layer" inkscape:label="6h">
	<g id="g8954" transform="translate(-2206.5344,198.14981)">
		<g id="g8823">
			<g id="g8929" transform="translate(-4683.8753,2918.9368)">
				<path id="rect6357" fill="#FFFFFF" stroke="#000000" stroke-width="0.9967" d="M6901.538-3116.588h201.97
					c5.871,0,10.629,4.759,10.629,10.63v290.552c0,5.871-4.758,10.631-10.629,10.631h-201.969c-5.871,0-10.63-4.76-10.63-10.631
					v-290.552C6890.908-3111.83,6895.668-3116.588,6901.538-3116.588z"/>
				<g id="g8673" transform="matrix(0.30106207,0,0,0.30106207,6829.277,-2295.2794)">
					<path id="path7108" inkscape:connector-curvature="0" sodipodi:nodetypes="cssccacccccszsss" fill="#D40000" d="
						M232.081-2608.46c-1.356-9.125-1.333-32.703-0.217-39.667c3.416-21.354,11.729-31.12,25.651-34.322
						c13.513-3.107,32.512,0.35,36.683,18.207l-11.317,0.211c-6.111-12.07-21.574-8.843-30.28-3.594
						c-6.951,4.191-10.091,21.655-8.748,22.729c-0.01,0,13.147-9.556,23.504-8.852c22.148,2.268,31.279,21.114,30.507,38.928
						c-0.697,21.422-7.623,38.539-31.091,39.681C244.459-2575.984,234.222-2587.93,232.081-2608.46z M287.12-2614.124
						c0.123-14.866-6.753-25.986-19.761-27.212c-13.004-1.229-26.118,11.233-25.21,26.381c0.911,15.204,6.906,28.006,22.674,27.935
						C281.784-2587.094,287.033-2603.546,287.12-2614.124L287.12-2614.124z"/>
					<path id="path7161" inkscape:connector-curvature="0" sodipodi:nodetypes="cssccacccccszsss" fill="#D40000" d="
						M918.813-1811.915c1.356,9.128,1.336,32.703,0.221,39.671c-3.419,21.35-11.729,31.12-25.651,34.319
						c-13.513,3.108-32.515-0.35-36.68-18.21l11.314-0.208c6.111,12.073,21.571,8.842,30.277,3.594
						c6.955-4.191,10.094-21.655,8.752-22.726c0.007,0-13.144,9.556-23.504,8.849c-22.148-2.264-31.282-21.11-30.51-38.925
						c0.701-21.425,7.623-38.536,31.094-39.687C906.442-1844.391,916.672-1832.444,918.813-1811.915L918.813-1811.915z
						 M863.774-1806.254c-0.123,14.869,6.753,25.992,19.761,27.218c13.007,1.223,26.125-11.236,25.217-26.384
						c-0.915-15.2-6.909-28.006-22.68-27.935C869.113-1833.278,863.864-1816.825,863.774-1806.254L863.774-1806.254z"/>
				</g>
			</g>
		</g>
		<path id="path8642" inkscape:connector-curvature="0" sodipodi:nodetypes="cccccccc" fill="#D40000" d="M2215.683-138.278
			c-1.583-3.473-1.756-9.404,2.972-10.208c3.562-0.458,5.012,1.198,5.3,3.742c0.142,0.743,0.562,0.788,0.695-0.059
			c0.205-2.609,2.787-4.133,4.806-3.75c5.527,0.944,5.204,7.027,3.397,11.155c-2.729,5.479-5.601,8.938-8.245,14.451
			C2221.571-128.686,2218.102-133.35,2215.683-138.278L2215.683-138.278z"/>
		<path id="path8530" inkscape:connector-curvature="0" sodipodi:nodetypes="ccccsccssc" fill="#D40000" d="M2250.971-169.288
			c7.146-0.475,10.869,5.627,11.597,10.438c0.434,0.764,0.67,0.549,0.837-0.043c0.349-6.175,5.875-11.221,10.991-10.53
			c8.328,0.107,13.391,9.376,11.968,17.22c-1.739,9.581-6.899,15.352-10.809,21.293c-4.422,6.152-10.373,15.039-12.291,19.316
			c0,0-6.048-9.204-13.917-20.029c-5.262-7.238-9.473-15.083-9.865-21.836C2239.035-161.176,2242.202-168.093,2250.971-169.288
			L2250.971-169.288z"/>
		<path id="path8532" inkscape:connector-curvature="0" sodipodi:nodetypes="ccccsccssc" fill="#D40000" d="M2362.504-169.288
			c7.146-0.475,10.867,5.627,11.597,10.438c0.432,0.764,0.67,0.549,0.836-0.043c0.35-6.175,5.875-11.221,10.991-10.53
			c8.328,0.107,13.392,9.376,11.968,17.22c-1.738,9.581-6.9,15.352-10.81,21.293c-4.42,6.152-10.371,15.039-12.289,19.316
			c0,0-6.049-9.204-13.918-20.029c-5.262-7.238-9.473-15.083-9.865-21.836C2350.568-161.176,2353.736-168.093,2362.504-169.288
			L2362.504-169.288z"/>
		<path id="path8534" inkscape:connector-curvature="0" sodipodi:nodetypes="ccccsccssc" fill="#D40000" d="M2362.504-70.395
			c7.146-0.476,10.867,5.627,11.597,10.437c0.432,0.764,0.67,0.549,0.836-0.042c0.35-6.175,5.875-11.221,10.991-10.53
			c8.328,0.107,13.392,9.375,11.968,17.22c-1.738,9.581-6.9,15.351-10.81,21.292c-4.42,6.151-10.371,15.039-12.289,19.315
			c0,0-6.049-9.203-13.918-20.028c-5.262-7.238-9.473-15.082-9.865-21.836C2350.568-62.282,2353.736-69.198,2362.504-70.395
			L2362.504-70.395z"/>
		<path id="path8536" inkscape:connector-curvature="0" sodipodi:nodetypes="ccccsccssc" fill="#D40000" d="M2250.971-70.395
			c7.146-0.476,10.869,5.627,11.597,10.437c0.434,0.764,0.67,0.549,0.837-0.042c0.349-6.175,5.875-11.221,10.991-10.53
			c8.328,0.107,13.391,9.375,11.968,17.22c-1.739,9.581-6.899,15.351-10.809,21.292c-4.422,6.151-10.373,15.039-12.291,19.315
			c0,0-6.048-9.203-13.917-20.028c-5.262-7.238-9.473-15.082-9.865-21.836C2239.035-62.282,2242.202-69.198,2250.971-70.395
			L2250.971-70.395z"/>
		<path id="path8592" inkscape:connector-curvature="0" sodipodi:nodetypes="ccccsccssc" fill="#D40000" d="M2250.971,85.698
			c7.146,0.475,10.869-5.627,11.597-10.438c0.434-0.764,0.67-0.549,0.837,0.043c0.349,6.175,5.875,11.222,10.991,10.529
			c8.328-0.107,13.391-9.375,11.968-17.219c-1.739-9.58-6.899-15.351-10.809-21.293c-4.422-6.152-10.373-15.039-12.291-19.316
			c0,0-6.048,9.205-13.917,20.029c-5.262,7.238-9.473,15.082-9.865,21.836C2239.035,77.584,2242.202,84.5,2250.971,85.698
			L2250.971,85.698z"/>
		<path id="path8594" inkscape:connector-curvature="0" sodipodi:nodetypes="ccccsccssc" fill="#D40000" d="M2362.504,85.698
			c7.146,0.475,10.867-5.627,11.597-10.438c0.432-0.764,0.67-0.549,0.836,0.043c0.35,6.175,5.875,11.222,10.991,10.529
			c8.328-0.107,13.392-9.375,11.968-17.219c-1.738-9.58-6.9-15.351-10.81-21.293c-4.42-6.152-10.371-15.039-12.289-19.316
			c0,0-6.049,9.205-13.918,20.029c-5.262,7.238-9.473,15.082-9.865,21.836C2350.568,77.584,2353.736,84.5,2362.504,85.698
			L2362.504,85.698z"/>
		<path id="path8658" inkscape:connector-curvature="0" sodipodi:nodetypes="cccccccc" fill="#D40000" d="M2404.5,52.58
			c-1.584,3.473-1.756,9.404,2.971,10.207c3.562,0.459,5.013-1.197,5.302-3.74c0.141-0.744,0.561-0.789,0.692,0.058
			c0.205,2.608,2.787,4.133,4.808,3.75c5.526-0.945,5.205-7.027,3.397-11.154c-2.729-5.48-5.6-8.938-8.244-14.453
			C2410.386,42.989,2406.917,47.653,2404.5,52.58L2404.5,52.58z"/>
	</g>
</g>
</svg>
