<?xml version="1.0" encoding="utf-8"?>
<!-- Generator: Adobe Illustrator 15.0.0, SVG Export Plug-In . SVG Version: 6.00 Build 0)  -->
<!DOCTYPE svg PUBLIC "-//W3C//DTD SVG 1.1//EN" "http://www.w3.org/Graphics/SVG/1.1/DTD/svg11.dtd">
<svg version="1.1"
	 id="svg4423" xmlns:sodipodi="http://sodipodi.sourceforge.net/DTD/sodipodi-0.dtd" sodipodi:docname="7H.svg" inkscape:version="0.48.1 r9760" xmlns:dc="http://purl.org/dc/elements/1.1/" xmlns:cc="http://creativecommons.org/ns#" xmlns:rdf="http://www.w3.org/1999/02/22-rdf-syntax-ns#" xmlns:svg="http://www.w3.org/2000/svg" xmlns:inkscape="http://www.inkscape.org/namespaces/inkscape"
	 xmlns="http://www.w3.org/2000/svg" xmlns:xlink="http://www.w3.org/1999/xlink" x="0px" y="0px" width="224.221px"
	 height="312.8px" viewBox="0 0 224.221 312.8" enable-background="new 0 0 224.221 312.8" xml:space="preserve">
<sodipodi:namedview  inkscape:window-x="29" inkscape:current-layer="layer1" inkscape:document-units="px" inkscape:window-height="925" borderopacity="1.0" id="base" inkscape:zoom="0.69999999" inkscape:cx="133.5404" inkscape:window-width="735" pagecolor="#ffffff" inkscape:cy="490.34926" inkscape:snap-page="true" inkscape:snap-global="true" inkscape:snap-bbox="true" bordercolor="#666666" showgrid="false" inkscape:pageopacity="0.0" inkscape:pageshadow="2" inkscape:window-y="29" inkscape:window-maximized="0">
	</sodipodi:namedview>
<g id="layer1" inkscape:groupmode="layer" inkscape:label="7H">
	<g id="g9031" transform="translate(-1090.3923,-113.66123)">
		<g id="g8838">
			<g id="g8853" transform="translate(-4683.8753,2918.9368)">
				<path id="rect6359" fill="#FFFFFF" stroke="#000000" stroke-width="0.99" stroke-miterlimit="3.8" d="M5785.393-2804.781
					h201.969c5.871,0,10.631,4.76,10.631,10.631v290.551c0,5.871-4.76,10.629-10.631,10.629h-201.969
					c-5.871,0-10.63-4.758-10.63-10.629v-290.551C5774.763-2800.021,5779.522-2804.781,5785.393-2804.781z"/>
				<g id="g8660" transform="matrix(0.30106207,0,0,0.30106207,5449.5822,-1980.8821)">
					<path id="path7110" inkscape:connector-curvature="0" sodipodi:nodetypes="cccccccccc" fill="#D40000" d="M1121.11-2582.15
						c7.081-36.836,14.642-64.479,34.478-94.496h-40.307v12.923h-10.714v-24.351h58.971l7.269,11.428
						c-21.062,22.576-40.349,95.56-36.933,94.496H1121.11L1121.11-2582.15z"/>
					<path id="path7126" inkscape:connector-curvature="0" sodipodi:nodetypes="cccccccccc" fill="#D40000" d="M1780.587-1855.426
						c-7.084,36.836-14.642,64.472-34.481,94.49h40.307v-12.917h10.717v24.347h-58.971l-7.272-11.431
						c21.065-22.576,40.352-95.554,36.933-94.49H1780.587L1780.587-1855.426z"/>
				</g>
			</g>
		</g>
		<path id="path8632" inkscape:connector-curvature="0" sodipodi:nodetypes="cccccccc" fill="#D40000" d="M1099.714,176.117
			c-1.583-3.473-1.756-9.404,2.971-10.209c3.562-0.457,5.013,1.199,5.301,3.742c0.142,0.744,0.562,0.789,0.693-0.059
			c0.205-2.609,2.788-4.131,4.808-3.75c5.525,0.945,5.203,7.029,3.397,11.156c-2.73,5.479-5.601,8.938-8.245,14.451
			C1105.602,185.71,1102.133,181.044,1099.714,176.117L1099.714,176.117z"/>
		<path id="path8538" inkscape:connector-curvature="0" sodipodi:nodetypes="ccccsccssc" fill="#D40000" d="M1134.074,143.964
			c7.144-0.477,10.867,5.627,11.595,10.436c0.434,0.766,0.671,0.549,0.838-0.043c0.349-6.174,5.874-11.219,10.992-10.529
			c8.328,0.107,13.39,9.375,11.967,17.221c-1.739,9.58-6.9,15.35-10.809,21.293c-4.422,6.15-10.372,15.039-12.291,19.314
			c0,0-6.048-9.203-13.916-20.027c-5.263-7.238-9.474-15.082-9.865-21.836C1122.136,152.076,1125.304,145.16,1134.074,143.964
			L1134.074,143.964z"/>
		<path id="path8540" inkscape:connector-curvature="0" sodipodi:nodetypes="ccccsccssc" fill="#D40000" d="M1245.605,143.964
			c7.146-0.477,10.869,5.627,11.598,10.436c0.434,0.766,0.67,0.549,0.836-0.043c0.35-6.174,5.875-11.219,10.99-10.529
			c8.328,0.107,13.393,9.375,11.969,17.221c-1.738,9.58-6.898,15.35-10.809,21.293c-4.422,6.15-10.373,15.039-12.291,19.314
			c0,0-6.049-9.203-13.916-20.027c-5.264-7.238-9.475-15.082-9.863-21.836C1233.668,152.076,1236.836,145.16,1245.605,143.964
			L1245.605,143.964z"/>
		<path id="path8542" inkscape:connector-curvature="0" sodipodi:nodetypes="ccccsccssc" fill="#D40000" d="M1190.507,194.087
			c7.146-0.475,10.868,5.627,11.596,10.438c0.434,0.764,0.671,0.549,0.837-0.043c0.349-6.174,5.875-11.221,10.994-10.529
			c8.328,0.107,13.389,9.375,11.967,17.219c-1.738,9.582-6.9,15.352-10.809,21.293c-4.422,6.152-10.373,15.039-12.291,19.316
			c0,0-6.049-9.205-13.918-20.029c-5.262-7.238-9.473-15.082-9.865-21.834C1178.571,202.201,1181.737,195.285,1190.507,194.087
			L1190.507,194.087z"/>
		<path id="path8544" inkscape:connector-curvature="0" sodipodi:nodetypes="ccccsccssc" fill="#D40000" d="M1134.074,244.212
			c7.144-0.477,10.867,5.627,11.595,10.436c0.434,0.764,0.671,0.549,0.838-0.041c0.349-6.176,5.874-11.221,10.992-10.531
			c8.328,0.109,13.39,9.375,11.967,17.221c-1.739,9.582-6.9,15.35-10.809,21.291c-4.422,6.152-10.372,15.039-12.291,19.316
			c0,0-6.048-9.203-13.916-20.029c-5.263-7.238-9.474-15.082-9.865-21.834C1122.136,252.324,1125.304,245.408,1134.074,244.212
			L1134.074,244.212z"/>
		<path id="path8546" inkscape:connector-curvature="0" sodipodi:nodetypes="ccccsccssc" fill="#D40000" d="M1245.605,244.212
			c7.146-0.477,10.869,5.627,11.598,10.436c0.434,0.764,0.67,0.549,0.836-0.041c0.35-6.176,5.875-11.221,10.99-10.531
			c8.328,0.109,13.393,9.375,11.969,17.221c-1.738,9.582-6.898,15.35-10.809,21.291c-4.422,6.152-10.373,15.039-12.291,19.316
			c0,0-6.049-9.203-13.916-20.029c-5.264-7.238-9.475-15.082-9.863-21.834C1233.668,252.324,1236.836,245.408,1245.605,244.212
			L1245.605,244.212z"/>
		<path id="path8666" inkscape:connector-curvature="0" sodipodi:nodetypes="cccccccc" fill="#D40000" d="M1288.529,366.974
			c-1.584,3.473-1.758,9.406,2.973,10.209c3.561,0.457,5.012-1.199,5.301-3.742c0.141-0.744,0.561-0.789,0.693,0.061
			c0.203,2.607,2.785,4.131,4.807,3.75c5.527-0.945,5.205-7.029,3.396-11.156c-2.729-5.48-5.6-8.939-8.242-14.451
			C1294.416,357.382,1290.947,362.046,1288.529,366.974L1288.529,366.974z"/>
		<path id="path8620" inkscape:connector-curvature="0" sodipodi:nodetypes="ccccsccssc" fill="#D40000" d="M1245.605,400.304
			c7.146,0.475,10.869-5.627,11.598-10.438c0.434-0.764,0.67-0.547,0.836,0.043c0.35,6.174,5.875,11.221,10.99,10.531
			c8.328-0.109,13.393-9.377,11.969-17.219c-1.738-9.582-6.898-15.352-10.809-21.295c-4.422-6.152-10.373-15.039-12.291-19.316
			c0,0-6.049,9.205-13.916,20.029c-5.264,7.24-9.475,15.084-9.863,21.836C1233.668,392.191,1236.836,399.109,1245.605,400.304
			L1245.605,400.304z"/>
		<path id="path8622" inkscape:connector-curvature="0" sodipodi:nodetypes="ccccsccssc" fill="#D40000" d="M1134.074,400.304
			c7.144,0.475,10.867-5.627,11.595-10.438c0.434-0.764,0.671-0.547,0.838,0.043c0.349,6.174,5.874,11.221,10.992,10.531
			c8.328-0.109,13.39-9.377,11.967-17.219c-1.739-9.582-6.9-15.352-10.809-21.295c-4.422-6.152-10.372-15.039-12.291-19.316
			c0,0-6.048,9.205-13.916,20.029c-5.263,7.24-9.474,15.084-9.865,21.836C1122.136,392.191,1125.304,399.109,1134.074,400.304
			L1134.074,400.304z"/>
	</g>
</g>
</svg>
