<?xml version="1.0" encoding="utf-8"?>
<!-- Generator: Adobe Illustrator 15.0.0, SVG Export Plug-In . SVG Version: 6.00 Build 0)  -->
<!DOCTYPE svg PUBLIC "-//W3C//DTD SVG 1.1//EN" "http://www.w3.org/Graphics/SVG/1.1/DTD/svg11.dtd">
<svg version="1.1"
	 id="svg4423" xmlns:sodipodi="http://sodipodi.sourceforge.net/DTD/sodipodi-0.dtd" sodipodi:docname="9H.svg" inkscape:version="0.48.1 r9760" xmlns:dc="http://purl.org/dc/elements/1.1/" xmlns:cc="http://creativecommons.org/ns#" xmlns:rdf="http://www.w3.org/1999/02/22-rdf-syntax-ns#" xmlns:svg="http://www.w3.org/2000/svg" xmlns:inkscape="http://www.inkscape.org/namespaces/inkscape"
	 xmlns="http://www.w3.org/2000/svg" xmlns:xlink="http://www.w3.org/1999/xlink" x="0px" y="0px" width="224.227px"
	 height="312.807px" viewBox="0 0 224.227 312.807" enable-background="new 0 0 224.227 312.807" xml:space="preserve">
<sodipodi:namedview  inkscape:window-x="976" inkscape:current-layer="layer1" inkscape:document-units="px" inkscape:window-height="925" borderopacity="1.0" id="base" inkscape:zoom="0.98994948" inkscape:cx="195.21402" inkscape:window-width="735" pagecolor="#ffffff" inkscape:cy="512.40065" inkscape:snap-page="true" inkscape:snap-global="true" inkscape:snap-bbox="true" bordercolor="#666666" showgrid="false" inkscape:pageopacity="0.0" inkscape:pageshadow="2" inkscape:window-y="63" inkscape:window-maximized="0">
	</sodipodi:namedview>
<g id="layer1" inkscape:groupmode="layer" inkscape:label="9H">
	<g id="g8993" transform="translate(-1536.8493,-113.66123)">
		<g id="g8871">
			<g id="g8817" transform="translate(-4683.8753,2918.9368)">
				<path id="rect6363" fill="#FFFFFF" stroke="#000000" stroke-width="0.9967" d="M6231.853-2804.777h201.969
					c5.871,0,10.631,4.759,10.631,10.63v290.55c0,5.871-4.76,10.629-10.631,10.629h-201.969c-5.871,0-10.63-4.758-10.63-10.629
					v-290.55C6221.223-2800.018,6225.981-2804.777,6231.853-2804.777z"/>
				<g id="g8631" transform="matrix(0.30106207,0,0,0.30106207,5727.1309,-1950.5247)">
					<g id="g8685" transform="translate(-1267.7708,-112.90889)">
						<path id="path7114" inkscape:connector-curvature="0" sodipodi:nodetypes="ccsccccscccsssssss" fill="#D40000" d="
							M2936.421-2593.847l10.052-3.13c3.792,9.952,11.46,12.884,19.569,12.255c14.555-1.132,19.388-17.101,20.478-31.221
							c-5.67,5.894-14.195,8.888-21.454,8.596c-23.193-1.226-29.129-19.446-29.346-38.535c-0.646-16.099,6.137-27.753,17.766-33.096
							c6.15-2.712,20.244-2.712,26.436,0.493c14.224,7.363,19.489,20.092,18.535,50.459c0.013,24.993-5.397,54.099-32.677,54.725
							C2950.012-2571.164,2938.037-2583.202,2936.421-2593.847L2936.421-2593.847z M2975.907-2621.228
							c4.733-2.942,7.406-5.702,9.524-9.842c1.742-3.396,2.332-5.157,1.836-12.19c-1.281-18.119-10.961-28.392-24.996-26.352
							c-7.827,1.139-12.102,5.44-14.554,13.445c-4.538,14.779,1.213,32.077,11.986,36.064
							C2964.561-2618.305,2972.041-2618.827,2975.907-2621.228z"/>
						<path id="path7130" inkscape:connector-curvature="0" sodipodi:nodetypes="ccsccccscccsssssss" fill="#D40000" d="
							M3620.786-1819.552l-10.056,3.127c-3.789-9.945-11.457-12.884-19.566-12.248c-14.558,1.129-19.384,17.101-20.481,31.218
							c5.677-5.891,14.201-8.888,21.46-8.596c23.193,1.226,29.125,19.449,29.343,38.535c0.642,16.095-6.137,27.753-17.766,33.086
							c-6.157,2.718-20.248,2.718-26.443-0.487c-14.217-7.363-19.482-20.098-18.525-50.459c-0.02-24.99,5.397-54.099,32.677-54.722
							C3607.195-1842.245,3619.17-1830.198,3620.786-1819.552L3620.786-1819.552z M3581.303-1792.175
							c-4.736,2.939-7.402,5.696-9.523,9.835c-1.745,3.399-2.336,5.164-1.836,12.196c1.278,18.12,10.957,28.389,24.99,26.352
							c7.83-1.142,12.106-5.443,14.558-13.448c4.541-14.772-1.213-32.074-11.982-36.064
							C3592.65-1795.101,3585.17-1794.582,3581.303-1792.175L3581.303-1792.175z"/>
					</g>
				</g>
			</g>
		</g>
		<path id="path8636" inkscape:connector-curvature="0" sodipodi:nodetypes="cccccccc" fill="#D40000" d="M1545.93,172.485
			c-1.583-3.473-1.757-9.405,2.972-10.208c3.562-0.459,5.012,1.198,5.3,3.742c0.142,0.742,0.562,0.788,0.694-0.059
			c0.204-2.609,2.787-4.134,4.808-3.75c5.525,0.944,5.204,7.027,3.397,11.154c-2.73,5.479-5.601,8.938-8.245,14.452
			C1551.818,182.077,1548.348,177.413,1545.93,172.485L1545.93,172.485z"/>
		<path id="path8558" inkscape:connector-curvature="0" sodipodi:nodetypes="ccccsccssc" fill="#D40000" d="M1582.199,142.837
			c7.144-0.476,10.867,5.627,11.595,10.437c0.434,0.764,0.671,0.549,0.837-0.043c0.35-6.174,5.875-11.22,10.993-10.529
			c8.327,0.107,13.39,9.375,11.966,17.22c-1.738,9.581-6.899,15.351-10.808,21.293c-4.421,6.151-10.372,15.039-12.29,19.315
			c0,0-6.049-9.204-13.917-20.029c-5.262-7.237-9.474-15.082-9.865-21.836C1570.261,150.948,1573.428,144.031,1582.199,142.837
			L1582.199,142.837z"/>
		<path id="path8560" inkscape:connector-curvature="0" sodipodi:nodetypes="ccccsccssc" fill="#D40000" d="M1691.73,142.837
			c7.146-0.476,10.869,5.627,11.597,10.437c0.434,0.764,0.672,0.549,0.838-0.043c0.348-6.174,5.875-11.22,10.991-10.529
			c8.328,0.107,13.39,9.375,11.968,17.22c-1.738,9.581-6.9,15.351-10.81,21.293c-4.422,6.151-10.373,15.039-12.289,19.315
			c0,0-6.049-9.204-13.918-20.029c-5.262-7.237-9.473-15.082-9.864-21.836C1679.794,150.948,1682.96,144.031,1691.73,142.837
			L1691.73,142.837z"/>
		<path id="path8562" inkscape:connector-curvature="0" sodipodi:nodetypes="ccccsccssc" fill="#D40000" d="M1691.73,208.166
			c7.146-0.474,10.869,5.629,11.597,10.438c0.434,0.765,0.672,0.549,0.838-0.042c0.348-6.174,5.875-11.22,10.991-10.53
			c8.328,0.108,13.39,9.376,11.968,17.219c-1.738,9.582-6.9,15.353-10.81,21.293c-4.422,6.152-10.373,15.04-12.289,19.317
			c0,0-6.049-9.205-13.918-20.03c-5.262-7.237-9.473-15.082-9.864-21.835C1679.794,216.278,1682.96,209.362,1691.73,208.166
			L1691.73,208.166z"/>
		<path id="path8564" inkscape:connector-curvature="0" sodipodi:nodetypes="ccccsccssc" fill="#D40000" d="M1636.912,241.319
			c7.144-0.475,10.868,5.627,11.595,10.438c0.434,0.764,0.671,0.549,0.837-0.043c0.35-6.175,5.875-11.221,10.993-10.529
			c8.328,0.106,13.389,9.375,11.967,17.219c-1.737,9.581-6.899,15.351-10.809,21.292c-4.42,6.152-10.373,15.039-12.29,19.316
			c0,0-6.049-9.203-13.917-20.029c-5.263-7.238-9.474-15.083-9.865-21.835C1624.974,249.431,1628.141,242.514,1636.912,241.319
			L1636.912,241.319z"/>
		<path id="path8566" inkscape:connector-curvature="0" sodipodi:nodetypes="ccccsccssc" fill="#D40000" d="M1582.199,208.166
			c7.144-0.474,10.867,5.629,11.595,10.438c0.434,0.765,0.671,0.549,0.837-0.042c0.35-6.174,5.875-11.22,10.993-10.53
			c8.327,0.108,13.39,9.376,11.966,17.219c-1.738,9.582-6.899,15.353-10.808,21.293c-4.421,6.152-10.372,15.04-12.29,19.317
			c0,0-6.049-9.205-13.917-20.03c-5.262-7.237-9.474-15.082-9.865-21.835C1570.261,216.278,1573.428,209.362,1582.199,208.166
			L1582.199,208.166z"/>
		<path id="path8606" inkscape:connector-curvature="0" sodipodi:nodetypes="ccccsccssc" fill="#D40000" d="M1691.73,332.557
			c7.146,0.475,10.869-5.627,11.597-10.438c0.434-0.764,0.672-0.549,0.838,0.041c0.348,6.178,5.875,11.223,10.991,10.531
			c8.328-0.107,13.39-9.375,11.968-17.219c-1.738-9.582-6.9-15.352-10.81-21.293c-4.422-6.152-10.373-15.039-12.289-19.316
			c0,0-6.049,9.203-13.918,20.029c-5.262,7.238-9.473,15.082-9.864,21.834C1679.794,324.444,1682.96,331.36,1691.73,332.557
			L1691.73,332.557z"/>
		<path id="path8608" inkscape:connector-curvature="0" sodipodi:nodetypes="ccccsccssc" fill="#D40000" d="M1691.73,397.66
			c7.146,0.477,10.869-5.627,11.597-10.436c0.434-0.764,0.672-0.549,0.838,0.041c0.348,6.176,5.875,11.221,10.991,10.531
			c8.328-0.109,13.39-9.375,11.968-17.219c-1.738-9.582-6.9-15.352-10.81-21.293c-4.422-6.152-10.373-15.039-12.289-19.316
			c0,0-6.049,9.203-13.918,20.029c-5.262,7.238-9.473,15.082-9.864,21.834C1679.794,389.551,1682.96,396.467,1691.73,397.66
			L1691.73,397.66z"/>
		<path id="path8610" inkscape:connector-curvature="0" sodipodi:nodetypes="ccccsccssc" fill="#D40000" d="M1582.199,397.66
			c7.144,0.477,10.867-5.627,11.595-10.436c0.434-0.764,0.671-0.549,0.837,0.041c0.35,6.176,5.875,11.221,10.993,10.531
			c8.327-0.109,13.39-9.375,11.966-17.219c-1.738-9.582-6.899-15.352-10.808-21.293c-4.421-6.152-10.372-15.039-12.29-19.316
			c0,0-6.049,9.203-13.917,20.029c-5.262,7.238-9.474,15.082-9.865,21.834C1570.261,389.551,1573.428,396.467,1582.199,397.66
			L1582.199,397.66z"/>
		<path id="path8612" inkscape:connector-curvature="0" sodipodi:nodetypes="ccccsccssc" fill="#D40000" d="M1582.199,332.557
			c7.144,0.475,10.867-5.627,11.595-10.438c0.434-0.764,0.671-0.549,0.837,0.041c0.35,6.178,5.875,11.223,10.993,10.531
			c8.327-0.107,13.39-9.375,11.966-17.219c-1.738-9.582-6.899-15.352-10.808-21.293c-4.421-6.152-10.372-15.039-12.29-19.316
			c0,0-6.049,9.203-13.917,20.029c-5.262,7.238-9.474,15.082-9.865,21.834C1570.261,324.444,1573.428,331.36,1582.199,332.557
			L1582.199,332.557z"/>
		<path id="path8662" inkscape:connector-curvature="0" sodipodi:nodetypes="cccccccc" fill="#D40000" d="M1734.747,363.344
			c-1.584,3.473-1.759,9.402,2.971,10.207c3.562,0.459,5.012-1.197,5.299-3.742c0.144-0.742,0.562-0.787,0.695,0.059
			c0.205,2.609,2.787,4.133,4.807,3.75c5.527-0.945,5.203-7.027,3.398-11.154c-2.73-5.48-5.601-8.938-8.244-14.453
			C1740.632,353.752,1737.165,358.416,1734.747,363.344L1734.747,363.344z"/>
	</g>
</g>
</svg>
