<?xml version="1.0" encoding="utf-8"?>
<!-- Generator: Adobe Illustrator 15.0.0, SVG Export Plug-In . SVG Version: 6.00 Build 0)  -->
<!DOCTYPE svg PUBLIC "-//W3C//DTD SVG 1.1//EN" "http://www.w3.org/Graphics/SVG/1.1/DTD/svg11.dtd">
<svg version="1.1"
	 id="svg4423" xmlns:sodipodi="http://sodipodi.sourceforge.net/DTD/sodipodi-0.dtd" sodipodi:docname="AH.svg" inkscape:version="0.48.1 r9760" xmlns:dc="http://purl.org/dc/elements/1.1/" xmlns:cc="http://creativecommons.org/ns#" xmlns:rdf="http://www.w3.org/1999/02/22-rdf-syntax-ns#" xmlns:svg="http://www.w3.org/2000/svg" xmlns:inkscape="http://www.inkscape.org/namespaces/inkscape"
	 xmlns="http://www.w3.org/2000/svg" xmlns:xlink="http://www.w3.org/1999/xlink" x="0px" y="0px" width="224.227px"
	 height="312.809px" viewBox="0 0 224.227 312.809" enable-background="new 0 0 224.227 312.809" xml:space="preserve">
<sodipodi:namedview  inkscape:window-x="784" inkscape:current-layer="layer1" inkscape:document-units="px" inkscape:window-height="925" borderopacity="1.0" id="base" inkscape:zoom="0.98994948" inkscape:cx="238.22195" inkscape:window-width="735" pagecolor="#ffffff" inkscape:cy="442.43337" inkscape:snap-page="true" inkscape:snap-global="true" inkscape:snap-bbox="true" bordercolor="#666666" showgrid="false" inkscape:pageopacity="0.0" inkscape:pageshadow="2" inkscape:window-y="63" inkscape:window-maximized="0">
	</sodipodi:namedview>
<g id="layer1" inkscape:groupmode="layer" inkscape:label="Layer 1">
	<g id="g8889" transform="translate(-1090.3923,198.14981)">
		<g id="g8763">
			<g id="g8869" transform="translate(-4683.8753,2918.9368)">
				<path id="rect3232" fill="#FFFFFF" stroke="#000000" stroke-width="0.9967" d="M5785.396-3116.588h201.969
					c5.871,0,10.631,4.759,10.631,10.63v290.552c0,5.871-4.76,10.631-10.631,10.631h-201.969c-5.871,0-10.63-4.76-10.63-10.631
					v-290.552C5774.766-3111.83,5779.524-3116.588,5785.396-3116.588z"/>
				<g id="g8567" transform="matrix(0.30106207,0,0,0.30106207,5730.6419,-1948.1116)">
					<path id="path7183" inkscape:connector-curvature="0" sodipodi:nodetypes="ccccccccccccccccccccc" fill="#D40000" d="
						M170.593-3728.171v-9.092h8.839l18.814-97.231h10.708l20.734,97.231h7.136v9.092h-24.308v-9.092h6.565l-2.614-14.898h-24.532
						l-1.894,14.898h6.569v9.092H170.593z M214.367-3762.769l-10.656-52.055l-9.987,52.055H214.367z"/>
					<path id="path7186" inkscape:connector-curvature="0" sodipodi:nodetypes="ccccccccccccccccccccc" fill="#D40000" d="
						M863.997-2998.492v9.089h-8.836l-18.814,97.228h-10.711l-20.734-97.228h-7.136v-9.089h24.308v9.089h-6.565l2.614,14.905h24.536
						l1.894-14.905h-6.565v-9.089H863.997z M820.226-2963.894l10.659,52.049l9.984-52.049H820.226z"/>
				</g>
			</g>
		</g>
		<path id="path8626" inkscape:connector-curvature="0" sodipodi:nodetypes="cccccccc" fill="#D40000" d="M1099.171-136.897
			c-1.583-3.474-1.757-9.406,2.971-10.208c3.562-0.459,5.013,1.197,5.301,3.74c0.142,0.743,0.562,0.789,0.694-0.058
			c0.204-2.609,2.787-4.133,4.807-3.75c5.526,0.945,5.203,7.028,3.397,11.155c-2.729,5.479-5.601,8.938-8.245,14.451
			C1105.058-127.305,1101.589-131.969,1099.171-136.897L1099.171-136.897z"/>
		<path id="path8512" inkscape:connector-curvature="0" sodipodi:nodetypes="ccccsccssc" fill="#D40000" d="M1190.455-70.493
			c7.145-0.475,10.869,5.627,11.596,10.438c0.434,0.764,0.671,0.549,0.837-0.043c0.35-6.174,5.875-11.221,10.993-10.529
			c8.328,0.107,13.389,9.375,11.967,17.219c-1.738,9.581-6.9,15.352-10.809,21.292c-4.422,6.152-10.373,15.039-12.29,19.316
			c0,0-6.049-9.203-13.918-20.029c-5.263-7.238-9.474-15.082-9.864-21.835C1178.517-62.38,1181.684-69.296,1190.455-70.493
			L1190.455-70.493z"/>
		<path id="path8648" inkscape:connector-curvature="0" sodipodi:nodetypes="cccccccc" fill="#D40000" d="M1287.551,53.789
			c-1.584,3.473-1.756,9.406,2.971,10.209c3.562,0.459,5.013-1.199,5.302-3.742c0.143-0.742,0.561-0.789,0.692,0.06
			c0.205,2.608,2.789,4.133,4.808,3.75c5.526-0.945,5.204-7.029,3.397-11.156c-2.729-5.479-5.6-8.938-8.244-14.451
			C1293.438,44.198,1289.969,48.862,1287.551,53.789L1287.551,53.789z"/>
	</g>
</g>
</svg>
