<?xml version="1.0" encoding="utf-8"?>
<!-- Generator: Adobe Illustrator 15.0.0, SVG Export Plug-In . SVG Version: 6.00 Build 0)  -->
<!DOCTYPE svg PUBLIC "-//W3C//DTD SVG 1.1//EN" "http://www.w3.org/Graphics/SVG/1.1/DTD/svg11.dtd">
<svg version="1.1"
	 id="svg4423" xmlns:inkscape="http://www.inkscape.org/namespaces/inkscape" xmlns:sodipodi="http://sodipodi.sourceforge.net/DTD/sodipodi-0.dtd" inkscape:version="0.48.1 r9760" xmlns:svg="http://www.w3.org/2000/svg" xmlns:cc="http://creativecommons.org/ns#" xmlns:dc="http://purl.org/dc/elements/1.1/" xmlns:rdf="http://www.w3.org/1999/02/22-rdf-syntax-ns#" sodipodi:docname="2C.svg"
	 xmlns="http://www.w3.org/2000/svg" xmlns:xlink="http://www.w3.org/1999/xlink" x="0px" y="0px" width="224.227px"
	 height="312.807px" viewBox="0 0 224.227 312.807" enable-background="new 0 0 224.227 312.807" xml:space="preserve">
<sodipodi:namedview  pagecolor="#ffffff" bordercolor="#666666" borderopacity="1.0" inkscape:cx="238.77087" inkscape:cy="301.35215" inkscape:pageopacity="0.0" inkscape:pageshadow="2" inkscape:zoom="0.98994948" inkscape:document-units="px" inkscape:current-layer="layer1" showgrid="false" inkscape:snap-global="true" inkscape:snap-bbox="true" inkscape:snap-page="true" inkscape:window-width="906" inkscape:window-height="925" inkscape:window-x="360" inkscape:window-y="95" inkscape:window-maximized="0" id="base">
	</sodipodi:namedview>
<path id="path147" fill="#010101" d="M83.051,269.369c11.39-22.838,19.669-46.255,21.137-71.307c1.349-9.235-4.245-9.39-5.097-2.883
	C82.99,256.822-2.762,240.122,0.188,182.147c2.396-47.046,49.116-57.163,73.475-41.771c9.614,5.651,9.074,2.273,3.82-3.615
	c-36.19-40.368-14.262-92.356,34.642-93.323c52.895,3.149,66.621,58.807,34.169,91.53c-4.03,3.939-12.973,16.583,0.508,7.74
	c32.762-23.283,78.222,1.758,77.299,37.644c-1.72,66.181-82.397,71.105-99.65,15.838c-1.665-6.126-6.436-9.215-5.117,1.192
	c2.39,18.856,7.331,47.254,21.508,71.985h-57.79V269.369z"/>
</svg>
