<?xml version="1.0" encoding="UTF-8" standalone="no"?>
<svg
   xmlns:dc="http://purl.org/dc/elements/1.1/"
   xmlns:cc="http://creativecommons.org/ns#"
   xmlns:rdf="http://www.w3.org/1999/02/22-rdf-syntax-ns#"
   xmlns:svg="http://www.w3.org/2000/svg"
   xmlns="http://www.w3.org/2000/svg"
   xml:space="preserve"
   enable-background="new 0 0 45.323 45.715"
   viewBox="0 0 45.323 45.715"
   height="45.715px"
   width="45.323px"
   y="0px"
   x="0px"
   id="Layer_1"
   version="1.1"><metadata
     id="metadata3423"><rdf:RDF><cc:Work
         rdf:about=""><dc:format>image/svg+xml</dc:format><dc:type
           rdf:resource="http://purl.org/dc/dcmitype/StillImage" /><dc:title></dc:title></cc:Work></rdf:RDF></metadata><defs
     id="defs3421" /><path
     d="M16.781,45.715c2.305-4.621,3.98-9.359,4.277-14.429  c0.273-1.868-0.859-1.899-1.031-0.583c-3.258,12.473-20.609,9.094-20.012-2.637C0.5,18.547,9.953,16.5,14.882,19.614  c1.945,1.144,1.836,0.46,0.773-0.731C8.332,10.715,12.769,0.196,22.664,0c10.703,0.637,13.48,11.899,6.914,18.52  c-0.816,0.797-2.625,3.355,0.102,1.566c6.629-4.711,15.828,0.356,15.641,7.617c-0.348,13.391-16.672,14.387-20.164,3.204  c-0.336-1.239-1.301-1.864-1.035,0.241c0.484,3.816,1.484,9.562,4.352,14.566H16.781L16.781,45.715z"
     fill="#010101"
     id="path147" /></svg>