<?xml version="1.0" encoding="utf-8"?>
<!-- Generator: Adobe Illustrator 15.0.0, SVG Export Plug-In . SVG Version: 6.00 Build 0)  -->
<!DOCTYPE svg PUBLIC "-//W3C//DTD SVG 1.1//EN" "http://www.w3.org/Graphics/SVG/1.1/DTD/svg11.dtd">
<svg version="1.1"
	 id="svg4423" xmlns:inkscape="http://www.inkscape.org/namespaces/inkscape" xmlns:sodipodi="http://sodipodi.sourceforge.net/DTD/sodipodi-0.dtd" inkscape:version="0.48.1 r9760" xmlns:svg="http://www.w3.org/2000/svg" xmlns:cc="http://creativecommons.org/ns#" xmlns:dc="http://purl.org/dc/elements/1.1/" xmlns:rdf="http://www.w3.org/1999/02/22-rdf-syntax-ns#" sodipodi:docname="2H.svg"
	 xmlns="http://www.w3.org/2000/svg" xmlns:xlink="http://www.w3.org/1999/xlink" x="0px" y="0px" width="224.227px"
	 height="312.809px" viewBox="0 0 224.227 312.809" enable-background="new 0 0 224.227 312.809" xml:space="preserve">
<sodipodi:namedview  pagecolor="#ffffff" bordercolor="#666666" borderopacity="1.0" inkscape:cx="248.48484" inkscape:cy="492.08587" inkscape:pageopacity="0.0" inkscape:pageshadow="2" inkscape:zoom="0.98994948" inkscape:document-units="px" inkscape:current-layer="layer1" showgrid="false" inkscape:snap-global="true" inkscape:snap-bbox="true" inkscape:snap-page="true" inkscape:window-width="690" inkscape:window-height="925" inkscape:window-x="935" inkscape:window-y="42" inkscape:window-maximized="0" id="base">
	</sodipodi:namedview>
<path id="path143" fill="#D31F26" d="M54.829,19.719c33.966-2.252,51.674,26.769,55.11,49.631c2.071,3.627,3.204,2.606,3.993-0.203
	c1.648-29.34,27.93-53.352,52.26-50.084c39.607,0.54,63.66,44.605,56.904,81.891c-8.266,45.55-32.806,72.992-51.396,101.246
	c-21.011,29.253-49.317,71.507-58.437,91.845c0,0-28.741-43.763-66.172-95.223C22.066,164.392,2.059,127.107,0.196,94.998
	C-1.94,58.304,13.127,25.407,54.829,19.719L54.829,19.719L54.829,19.719z"/>
</svg>
