<?xml version="1.0" encoding="UTF-8" standalone="no"?>
<svg
   xmlns:dc="http://purl.org/dc/elements/1.1/"
   xmlns:cc="http://creativecommons.org/ns#"
   xmlns:rdf="http://www.w3.org/1999/02/22-rdf-syntax-ns#"
   xmlns:svg="http://www.w3.org/2000/svg"
   xmlns="http://www.w3.org/2000/svg"
   xml:space="preserve"
   enable-background="new 0 0 37.728 46.316"
   viewBox="0 0 37.728 46.316"
   height="46.316px"
   width="37.728px"
   y="0px"
   x="0px"
   id="Layer_1"
   version="1.1"><metadata
     id="metadata3504"><rdf:RDF><cc:Work
         rdf:about=""><dc:format>image/svg+xml</dc:format><dc:type
           rdf:resource="http://purl.org/dc/dcmitype/StillImage" /><dc:title></dc:title></cc:Work></rdf:RDF></metadata><defs
     id="defs3502" /><path
     d="M9.225,0.16c5.715-0.379,8.695,4.504,9.273,8.351  c0.348,0.61,0.539,0.438,0.672-0.035C19.447,3.54,23.869-0.5,27.963,0.05c6.664,0.09,10.711,7.504,9.574,13.778  c-1.391,7.664-5.52,12.281-8.648,17.035c-3.535,4.922-8.297,12.031-9.832,15.453c0,0-4.836-7.363-11.133-16.021  c-4.211-5.793-7.578-12.067-7.891-17.469C-0.326,6.652,2.209,1.117,9.225,0.16L9.225,0.16L9.225,0.16z"
     fill="#D31F26"
     id="path143" /></svg>