<?xml version="1.0" encoding="UTF-8" standalone="no"?>
<svg
   xmlns:dc="http://purl.org/dc/elements/1.1/"
   xmlns:cc="http://creativecommons.org/ns#"
   xmlns:rdf="http://www.w3.org/1999/02/22-rdf-syntax-ns#"
   xmlns:svg="http://www.w3.org/2000/svg"
   xmlns="http://www.w3.org/2000/svg"
   xml:space="preserve"
   enable-background="new 0 0 38.232 47.496"
   viewBox="0 0 38.232 47.496"
   height="47.496px"
   width="38.232px"
   y="0px"
   x="0px"
   id="Layer_1"
   version="1.1"><metadata
     id="metadata8"><rdf:RDF><cc:Work
         rdf:about=""><dc:format>image/svg+xml</dc:format><dc:type
           rdf:resource="http://purl.org/dc/dcmitype/StillImage" /><dc:title></dc:title></cc:Work></rdf:RDF></metadata><defs
     id="defs6" /><path
     d="M17.411,32.91c0.012-1.621-1.271-1.651-1.254-0.469  c-0.105,5.942-5.133,8.867-8.785,8.176c-5.629-1.069-7.426-6.66-7.371-9.949C0.165,20.511,10.392,13.019,19.618,0  c6.758,11.754,17.918,20.984,18.578,30.066c0.879,12.082-14.406,16.586-16.59,2.508c-0.142-0.996-1.313-1.439-1.224-0.051  c0.332,3.856-0.137,5.465,4.215,14.973H13.219C15.739,43.054,17.239,37.597,17.411,32.91L17.411,32.91L17.411,32.91z"
     fill="#010101"
     id="path153" /></svg>