<?xml version="1.0" encoding="utf-8"?>
<!-- Generator: Adobe Illustrator 15.0.0, SVG Export Plug-In . SVG Version: 6.00 Build 0)  -->
<!DOCTYPE svg PUBLIC "-//W3C//DTD SVG 1.1//EN" "http://www.w3.org/Graphics/SVG/1.1/DTD/svg11.dtd">
<svg version="1.1"
	 id="svg4423" xmlns:inkscape="http://www.inkscape.org/namespaces/inkscape" xmlns:sodipodi="http://sodipodi.sourceforge.net/DTD/sodipodi-0.dtd" inkscape:version="0.48.1 r9760" xmlns:svg="http://www.w3.org/2000/svg" xmlns:cc="http://creativecommons.org/ns#" xmlns:dc="http://purl.org/dc/elements/1.1/" xmlns:rdf="http://www.w3.org/1999/02/22-rdf-syntax-ns#" sodipodi:docname="2S.svg"
	 xmlns="http://www.w3.org/2000/svg" xmlns:xlink="http://www.w3.org/1999/xlink" x="0px" y="0px" width="224.227px"
	 height="312.807px" viewBox="0 0 224.227 312.807" enable-background="new 0 0 224.227 312.807" xml:space="preserve">
<sodipodi:namedview  pagecolor="#ffffff" bordercolor="#666666" borderopacity="1.0" inkscape:cx="208.27976" inkscape:cy="566.2223" inkscape:pageopacity="0.0" inkscape:pageshadow="2" inkscape:zoom="1.4" inkscape:document-units="px" inkscape:current-layer="layer1" showgrid="false" inkscape:snap-global="true" inkscape:snap-bbox="true" inkscape:snap-page="true" inkscape:window-width="967" inkscape:window-height="926" inkscape:window-x="585" inkscape:window-y="92" inkscape:window-maximized="0" id="base">
	</sodipodi:namedview>
<path id="path153" fill="#010101" d="M102.114,210.138c0.068-9.508-7.452-9.686-7.354-2.749
	c-0.619,34.845-30.103,52.004-51.523,47.949c-33.013-6.271-43.551-39.061-43.23-58.351C0.968,137.417,60.95,93.48,115.057,17.125
	C154.691,86.06,220.143,140.192,224.015,193.46c5.154,70.858-84.49,97.273-97.297,14.707c-0.836-5.842-7.703-8.441-7.182-0.298
	c1.947,22.612-0.802,32.051,24.725,87.812H77.526C92.308,269.634,101.105,237.629,102.114,210.138L102.114,210.138L102.114,210.138z
	"/>
</svg>
