<?xml version="1.0" encoding="utf-8"?>
<!-- Generator: Adobe Illustrator 15.0.0, SVG Export Plug-In . SVG Version: 6.00 Build 0)  -->
<!DOCTYPE svg PUBLIC "-//W3C//DTD SVG 1.1//EN" "http://www.w3.org/Graphics/SVG/1.1/DTD/svg11.dtd">
<svg version="1.1"
	 id="svg4423" xmlns:sodipodi="http://sodipodi.sourceforge.net/DTD/sodipodi-0.dtd" sodipodi:docname="3H.svg" inkscape:version="0.48.1 r9760" xmlns:dc="http://purl.org/dc/elements/1.1/" xmlns:cc="http://creativecommons.org/ns#" xmlns:rdf="http://www.w3.org/1999/02/22-rdf-syntax-ns#" xmlns:svg="http://www.w3.org/2000/svg" xmlns:inkscape="http://www.inkscape.org/namespaces/inkscape"
	 xmlns="http://www.w3.org/2000/svg" xmlns:xlink="http://www.w3.org/1999/xlink" x="0px" y="0px" width="224.227px"
	 height="312.809px" viewBox="0 0 224.227 312.809" enable-background="new 0 0 224.227 312.809" xml:space="preserve">
<sodipodi:namedview  inkscape:window-x="1078" inkscape:current-layer="layer1" inkscape:document-units="px" inkscape:window-height="925" borderopacity="1.0" id="base" inkscape:zoom="0.98994948" inkscape:cx="190.96525" inkscape:window-width="735" pagecolor="#ffffff" inkscape:cy="436.29345" inkscape:snap-page="true" inkscape:snap-global="true" inkscape:snap-bbox="true" bordercolor="#666666" showgrid="false" inkscape:pageopacity="0.0" inkscape:pageshadow="2" inkscape:window-y="117" inkscape:window-maximized="0">
	</sodipodi:namedview>
<g id="layer1" inkscape:groupmode="layer" inkscape:label="3H" sodipodi:insensitive="true">
	<g id="g8912" transform="translate(-1536.8493,198.14981)">
		<g id="g8784">
			<g id="g8890" transform="translate(-4683.8753,2918.9368)">
				<path id="rect6351" fill="#FFFFFF" stroke="#000000" stroke-width="0.9967" d="M6231.853-3116.588h201.969
					c5.871,0,10.631,4.759,10.631,10.63v290.552c0,5.871-4.76,10.631-10.631,10.631h-201.969c-5.871,0-10.63-4.76-10.63-10.631
					v-290.552C6221.223-3111.83,6225.981-3116.588,6231.853-3116.588z"/>
				<g id="g8582" transform="matrix(0.30106207,0,0,0.30106207,5635.595,-1948.9541)">
					<path id="path7102" inkscape:connector-curvature="0" sodipodi:nodetypes="ccccscccccccccccscc" fill="#D40000" d="
						M1973.271-3748.133l8.463-6.111c7.354,11.736,15.563,19.472,28.117,18.142c18.843-1.265,26.65-20.659,22.703-35.285
						c-3.808-13.101-19.417-19.495-31.814-12.498c-2.923,1.651-6.302,3.688-6.302,3.688l-4.418-7.195l29.109-33.865h-31.587v14.016
						h-12.122v-25.129h61.744v8.531c0,0-16.54,16.835-22.012,26.063c13.468,0.49,24.325,8.868,28.208,22.119
						c2.28,6.971,1.255,22.923-1.716,29.787c-4.963,11.46-18.548,20.76-30.965,21.298c-20.828,1.372-31.892-12.962-37.403-23.562
						H1973.271L1973.271-3748.133z"/>
					<path id="path7118" inkscape:connector-curvature="0" sodipodi:nodetypes="ccccscccccccccccscc" fill="#D40000" d="
						M2658.615-2972.932l-8.466,6.108c-7.35-11.736-15.557-19.472-28.117-18.139c-18.846,1.265-26.644,20.656-22.699,35.285
						c3.808,13.098,19.417,19.495,31.814,12.495c2.919-1.648,6.306-3.374,6.306-3.374l5.222,6.753l-29.92,33.988h31.587v-14.013
						h12.125v25.126h-61.748v-8.525c0,0,16.533-16.841,22.012-26.066c-13.468-0.493-24.325-8.868-28.21-22.116
						c-2.277-6.974-1.252-22.927,1.719-29.791c4.96-11.463,18.551-20.76,30.958-21.298
						C2642.033-2997.873,2653.094-2983.535,2658.615-2972.932L2658.615-2972.932z"/>
				</g>
			</g>
		</g>
		<path id="path8630" inkscape:connector-curvature="0" sodipodi:nodetypes="cccccccc" fill="#D40000" d="M1547.089-136.987
			c-1.583-3.473-1.757-9.405,2.971-10.208c3.562-0.459,5.013,1.198,5.301,3.741c0.142,0.743,0.562,0.789,0.694-0.058
			c0.205-2.609,2.787-4.133,4.808-3.75c5.525,0.944,5.204,7.027,3.397,11.155c-2.73,5.479-5.601,8.938-8.245,14.451
			C1552.977-127.395,1549.508-132.059,1547.089-136.987L1547.089-136.987z"/>
		<path id="path8516" inkscape:connector-curvature="0" sodipodi:nodetypes="ccccsccssc" fill="#D40000" d="M1636.848-168.914
			c7.145-0.475,10.868,5.627,11.595,10.438c0.435,0.764,0.672,0.549,0.838-0.043c0.349-6.175,5.875-11.221,10.994-10.529
			c8.325,0.106,13.389,9.375,11.965,17.219c-1.738,9.581-6.898,15.352-10.808,21.293c-4.422,6.152-10.373,15.039-12.291,19.316
			c0,0-6.049-9.204-13.917-20.029c-5.262-7.238-9.474-15.082-9.865-21.836C1624.912-160.802,1628.079-167.718,1636.848-168.914
			L1636.848-168.914z"/>
		<path id="path8518" inkscape:connector-curvature="0" sodipodi:nodetypes="ccccsccssc" fill="#D40000" d="M1636.913-70.492
			c7.144-0.475,10.868,5.627,11.595,10.438c0.434,0.764,0.671,0.549,0.837-0.043c0.351-6.174,5.875-11.221,10.993-10.529
			c8.328,0.107,13.389,9.375,11.967,17.219c-1.738,9.581-6.899,15.352-10.809,21.292c-4.42,6.152-10.373,15.039-12.29,19.316
			c0,0-6.049-9.203-13.917-20.029c-5.263-7.238-9.475-15.082-9.865-21.835C1624.974-62.38,1628.141-69.296,1636.913-70.492
			L1636.913-70.492z"/>
		<path id="path8652" inkscape:connector-curvature="0" sodipodi:nodetypes="cccccccc" fill="#D40000" d="M1734.077,54.224
			c-1.582,3.474-1.757,9.406,2.971,10.209c3.562,0.457,5.012-1.198,5.301-3.741c0.144-0.744,0.562-0.789,0.695,0.059
			c0.203,2.609,2.787,4.131,4.805,3.75c5.527-0.945,5.205-7.029,3.4-11.156c-2.732-5.479-5.603-8.938-8.246-14.451
			C1739.965,44.633,1736.495,49.297,1734.077,54.224L1734.077,54.224z"/>
		<path id="path8582" inkscape:connector-curvature="0" sodipodi:nodetypes="ccccsccssc" fill="#D40000" d="M1636.848,85.681
			c7.145,0.476,10.868-5.627,11.595-10.436c0.435-0.766,0.672-0.549,0.838,0.041c0.349,6.174,5.875,11.221,10.994,10.531
			c8.325-0.109,13.389-9.377,11.965-17.22c-1.738-9.582-6.898-15.352-10.808-21.293c-4.422-6.151-10.373-15.041-12.291-19.317
			c0,0-6.049,9.205-13.917,20.031c-5.262,7.237-9.474,15.081-9.865,21.834C1624.912,77.571,1628.079,84.487,1636.848,85.681
			L1636.848,85.681z"/>
	</g>
</g>
</svg>
