<?xml version="1.0" encoding="utf-8"?>
<!-- Generator: Adobe Illustrator 15.0.0, SVG Export Plug-In . SVG Version: 6.00 Build 0)  -->
<!DOCTYPE svg PUBLIC "-//W3C//DTD SVG 1.1//EN" "http://www.w3.org/Graphics/SVG/1.1/DTD/svg11.dtd">
<svg version="1.1"
	 id="svg4423" xmlns:sodipodi="http://sodipodi.sourceforge.net/DTD/sodipodi-0.dtd" sodipodi:docname="4H.svg" inkscape:version="0.48.1 r9760" xmlns:dc="http://purl.org/dc/elements/1.1/" xmlns:cc="http://creativecommons.org/ns#" xmlns:rdf="http://www.w3.org/1999/02/22-rdf-syntax-ns#" xmlns:svg="http://www.w3.org/2000/svg" xmlns:inkscape="http://www.inkscape.org/namespaces/inkscape"
	 xmlns="http://www.w3.org/2000/svg" xmlns:xlink="http://www.w3.org/1999/xlink" x="0px" y="0px" width="224.225px"
	 height="312.809px" viewBox="0 0 224.225 312.809" enable-background="new 0 0 224.225 312.809" xml:space="preserve">
<sodipodi:namedview  inkscape:window-x="577" inkscape:current-layer="layer1" inkscape:document-units="px" inkscape:window-height="925" borderopacity="1.0" id="base" inkscape:zoom="0.98994948" inkscape:cx="249.10806" inkscape:window-width="735" pagecolor="#ffffff" inkscape:cy="483.12663" inkscape:snap-page="true" inkscape:snap-global="true" inkscape:snap-bbox="true" bordercolor="#666666" showgrid="false" inkscape:pageopacity="0.0" inkscape:pageshadow="2" inkscape:window-y="44" inkscape:window-maximized="0">
	</sodipodi:namedview>
<g id="layer1" inkscape:groupmode="layer" inkscape:label="4H">
	<g id="g8925" transform="translate(-1760.0774,198.14981)">
		<g id="g8796">
			<g id="g8902" transform="translate(-4683.8753,2918.9368)">
				<path id="rect6353" fill="#FFFFFF" stroke="#000000" stroke-width="0.9967" d="M6455.081-3116.588h201.97
					c5.871,0,10.629,4.759,10.629,10.63v290.552c0,5.871-4.758,10.631-10.629,10.631h-201.969c-5.871,0-10.63-4.76-10.63-10.631
					v-290.552C6444.451-3111.83,6449.211-3116.588,6455.081-3116.588z"/>
				<g id="g8591" transform="matrix(0.30106207,0,0,0.30106207,5623.2929,-1949.6699)">
					<path id="path7104" inkscape:connector-curvature="0" sodipodi:nodetypes="cccccccccccccccccccc" fill="#D40000" d="
						M2786.786-3721.973v-9.345h8.586v-15.398h-42.931v-10.863l46.45-70.081l7.594,0.026v70.052h13.131v10.866h-13.131
						l-0.253,15.398h7.198v9.345H2786.786L2786.786-3721.973z M2795.372-3802.015l-29.492,44.436h29.492V-3802.015z"/>
					<path id="path7159" inkscape:connector-curvature="0" sodipodi:nodetypes="cccccccccccccccccccc" fill="#D40000" d="
						M3409.77-2994.34v9.348h-8.583v15.395h42.934v10.866l-46.457,70.077l-7.59-0.026v-70.052h-13.131v-10.866h13.131l0.253-15.395
						h-7.194v-9.348H3409.77z M3401.187-2914.298l29.492-44.433h-29.492V-2914.298z"/>
				</g>
			</g>
		</g>
		<path id="path8638" inkscape:connector-curvature="0" sodipodi:nodetypes="cccccccc" fill="#D40000" d="M1769.334-136.656
			c-1.583-3.473-1.756-9.404,2.971-10.208c3.562-0.459,5.012,1.198,5.3,3.742c0.144,0.742,0.562,0.788,0.695-0.059
			c0.205-2.609,2.788-4.133,4.807-3.75c5.526,0.944,5.204,7.027,3.398,11.154c-2.731,5.479-5.601,8.938-8.245,14.452
			C1775.221-127.066,1771.752-131.729,1769.334-136.656L1769.334-136.656z"/>
		<path id="path8520" inkscape:connector-curvature="0" sodipodi:nodetypes="ccccsccssc" fill="#D40000" d="M1805.575-171.587
			c7.144-0.476,10.868,5.627,11.595,10.437c0.435,0.765,0.671,0.55,0.837-0.042c0.351-6.175,5.875-11.221,10.993-10.529
			c8.328,0.107,13.389,9.375,11.966,17.219c-1.737,9.581-6.898,15.351-10.808,21.293c-4.422,6.152-10.373,15.039-12.29,19.316
			c0,0-6.048-9.204-13.917-20.029c-5.263-7.238-9.475-15.082-9.865-21.835C1793.638-163.475,1796.805-170.391,1805.575-171.587
			L1805.575-171.587z"/>
		<path id="path8522" inkscape:connector-curvature="0" sodipodi:nodetypes="ccccsccssc" fill="#D40000" d="M1915.108-171.587
			c7.145-0.476,10.868,5.627,11.596,10.437c0.435,0.765,0.67,0.55,0.836-0.042c0.351-6.175,5.875-11.221,10.992-10.529
			c8.327,0.107,13.391,9.375,11.967,17.219c-1.738,9.581-6.897,15.351-10.807,21.293c-4.423,6.152-10.373,15.039-12.291,19.316
			c0,0-6.05-9.204-13.918-20.029c-5.263-7.238-9.474-15.082-9.863-21.835C1903.171-163.475,1906.338-170.391,1915.108-171.587
			L1915.108-171.587z"/>
		<path id="path8584" inkscape:connector-curvature="0" sodipodi:nodetypes="ccccsccssc" fill="#D40000" d="M1805.575,84.754
			c7.144,0.474,10.868-5.629,11.595-10.438c0.435-0.765,0.671-0.55,0.837,0.043c0.351,6.174,5.875,11.219,10.993,10.528
			c8.328-0.106,13.389-9.375,11.966-17.219c-1.737-9.582-6.898-15.352-10.808-21.293c-4.422-6.152-10.373-15.039-12.29-19.316
			c0,0-6.048,9.205-13.917,20.029c-5.263,7.238-9.475,15.082-9.865,21.836c-0.448,7.715,2.719,14.631,11.489,15.826V84.754
			L1805.575,84.754z"/>
		<path id="path8586" inkscape:connector-curvature="0" sodipodi:nodetypes="ccccsccssc" fill="#D40000" d="M1915.108,84.754
			c7.145,0.474,10.868-5.629,11.596-10.438c0.435-0.765,0.67-0.55,0.836,0.043c0.351,6.174,5.875,11.219,10.992,10.528
			c8.327-0.106,13.391-9.375,11.967-17.219c-1.738-9.582-6.897-15.352-10.807-21.293c-4.423-6.152-10.373-15.039-12.291-19.316
			c0,0-6.05,9.205-13.918,20.029c-5.263,7.238-9.474,15.082-9.863,21.836c-0.449,7.715,2.719,14.631,11.488,15.826V84.754z"/>
		<path id="path8654" inkscape:connector-curvature="0" sodipodi:nodetypes="cccccccc" fill="#D40000" d="M1956.553,53.455
			c-1.584,3.473-1.758,9.406,2.972,10.209c3.562,0.459,5.012-1.199,5.299-3.742c0.144-0.742,0.562-0.789,0.695,0.06
			c0.205,2.608,2.787,4.133,4.807,3.75c5.527-0.945,5.203-7.029,3.397-11.156c-2.729-5.479-5.602-8.938-8.246-14.451
			c-3.037,5.74-6.506,10.404-8.926,15.332L1956.553,53.455L1956.553,53.455z"/>
	</g>
</g>
</svg>
