<?xml version="1.0" encoding="utf-8"?>
<!-- Generator: Adobe Illustrator 15.0.0, SVG Export Plug-In . SVG Version: 6.00 Build 0)  -->
<!DOCTYPE svg PUBLIC "-//W3C//DTD SVG 1.1//EN" "http://www.w3.org/Graphics/SVG/1.1/DTD/svg11.dtd">
<svg version="1.1"
	 id="svg4423" xmlns:sodipodi="http://sodipodi.sourceforge.net/DTD/sodipodi-0.dtd" sodipodi:docname="5H.svg" inkscape:version="0.48.1 r9760" xmlns:dc="http://purl.org/dc/elements/1.1/" xmlns:cc="http://creativecommons.org/ns#" xmlns:rdf="http://www.w3.org/1999/02/22-rdf-syntax-ns#" xmlns:svg="http://www.w3.org/2000/svg" xmlns:inkscape="http://www.inkscape.org/namespaces/inkscape"
	 xmlns="http://www.w3.org/2000/svg" xmlns:xlink="http://www.w3.org/1999/xlink" x="0px" y="0px" width="224.225px"
	 height="312.809px" viewBox="0 0 224.225 312.809" enable-background="new 0 0 224.225 312.809" xml:space="preserve">
<sodipodi:namedview  inkscape:window-x="578" inkscape:current-layer="layer1" inkscape:document-units="px" inkscape:window-height="925" borderopacity="1.0" id="base" inkscape:zoom="0.98994948" inkscape:cx="199.26695" inkscape:window-width="735" pagecolor="#ffffff" inkscape:cy="514.96342" inkscape:snap-page="true" inkscape:snap-global="true" inkscape:snap-bbox="true" bordercolor="#666666" showgrid="false" inkscape:pageopacity="0.0" inkscape:pageshadow="2" inkscape:window-y="17" inkscape:window-maximized="0">
	</sodipodi:namedview>
<g id="layer1" inkscape:groupmode="layer" inkscape:label="5H">
	<g id="g8939" transform="translate(-1983.3059,198.14981)">
		<g id="g8809">
			<g id="g8915" transform="translate(-4683.8753,2918.9368)">
				<path id="rect6355" fill="#FFFFFF" stroke="#000000" stroke-width="0.9967" d="M6678.311-3116.588h201.969
					c5.871,0,10.629,4.759,10.629,10.63v290.552c0,5.871-4.758,10.631-10.629,10.631h-201.969c-5.871,0-10.63-4.76-10.63-10.631
					v-290.552C6667.68-3111.83,6672.439-3116.588,6678.311-3116.588z"/>
				<g id="g8601" transform="matrix(0.30106207,0,0,0.30106207,5562.5812,-1947.8121)">
					<path id="path7106" inkscape:connector-curvature="0" sodipodi:nodetypes="cccssccccccccccc" fill="#D40000" d="
						M3697.838-3757.493l10.695-0.094c2.037,6.458,6.552,13.04,12.68,14.86c17.312,4.064,28.457-5.605,32.129-16.764
						c4.45-13.53-0.101-32.538-12.018-39.288c-9.884-5.599-24.562-0.876-31.295,11.09l-7.496-4.583l4.022-44.579h48.928v10.536
						h-39.651l-0.623,18.57c8.521-5.988,21.649-5.929,30.18-1.729c16.157,7.704,23.663,25.22,20.517,45.873
						c-4.353,20.539-13.942,32.178-35.6,33.848C3706.242-3729.545,3697.741-3746.088,3697.838-3757.493L3697.838-3757.493z"/>
					<path id="path7122" inkscape:connector-curvature="0" sodipodi:nodetypes="cccssccccccccccc" fill="#D40000" d="
						M4384.969-2971.162l-10.688,0.097c-2.037-6.461-6.552-13.04-12.683-14.863c-17.312-4.061-28.457,5.605-32.129,16.764
						c-4.447,13.533,0.107,32.534,12.018,39.288c9.887,5.599,24.568,0.876,31.295-11.087l7.5,4.58l-4.022,44.582h-48.928v-10.536
						h39.651l0.623-18.573c-8.524,5.988-21.655,5.929-30.183,1.732c-16.16-7.707-23.66-25.223-20.52-45.873
						c4.353-20.539,13.942-32.178,35.603-33.852C4376.571-2999.11,4385.07-2982.567,4384.969-2971.162L4384.969-2971.162z"/>
				</g>
			</g>
		</g>
		<path id="path8640" inkscape:connector-curvature="0" sodipodi:nodetypes="cccccccc" fill="#D40000" d="M1993.317-137.054
			c-1.583-3.474-1.757-9.405,2.972-10.208c3.562-0.459,5.012,1.198,5.3,3.741c0.143,0.742,0.562,0.789,0.694-0.059
			c0.205-2.608,2.787-4.133,4.807-3.75c5.526,0.945,5.204,7.028,3.398,11.155c-2.731,5.479-5.602,8.938-8.245,14.452
			C1999.205-127.462,1995.735-132.126,1993.317-137.054L1993.317-137.054z"/>
		<path id="path8524" inkscape:connector-curvature="0" sodipodi:nodetypes="ccccsccssc" fill="#D40000" d="M2027.861-169.73
			c7.145-0.475,10.867,5.628,11.596,10.437c0.434,0.765,0.67,0.549,0.836-0.042c0.35-6.174,5.875-11.22,10.993-10.53
			c8.327,0.108,13.39,9.376,11.966,17.22c-1.738,9.582-6.898,15.352-10.809,21.293c-4.42,6.151-10.371,15.04-12.289,19.316
			c0,0-6.049-9.205-13.918-20.03c-5.262-7.237-9.473-15.082-9.864-21.835C2015.923-161.618,2019.09-168.534,2027.861-169.73
			L2027.861-169.73z"/>
		<path id="path8526" inkscape:connector-curvature="0" sodipodi:nodetypes="ccccsccssc" fill="#D40000" d="M2138.542-169.73
			c7.144-0.475,10.867,5.628,11.594,10.437c0.435,0.765,0.673,0.549,0.838-0.042c0.351-6.174,5.875-11.22,10.992-10.53
			c8.328,0.108,13.392,9.376,11.967,17.22c-1.737,9.582-6.899,15.352-10.809,21.293c-4.42,6.151-10.373,15.04-12.289,19.316
			c0,0-6.049-9.205-13.918-20.03c-5.262-7.237-9.473-15.082-9.865-21.835C2126.606-161.618,2129.774-168.534,2138.542-169.73
			L2138.542-169.73z"/>
		<path id="path8528" inkscape:connector-curvature="0" sodipodi:nodetypes="ccccsccssc" fill="#D40000" d="M2083.371-70.493
			c7.145-0.475,10.868,5.627,11.595,10.438c0.435,0.764,0.671,0.549,0.837-0.043c0.351-6.174,5.875-11.221,10.993-10.529
			c8.328,0.107,13.389,9.375,11.967,17.219c-1.737,9.581-6.899,15.352-10.809,21.292c-4.423,6.152-10.373,15.039-12.29,19.316
			c0,0-6.049-9.203-13.918-20.029c-5.262-7.238-9.473-15.082-9.864-21.835C2071.433-62.38,2074.599-69.296,2083.371-70.493
			L2083.371-70.493z"/>
		<path id="path8588" inkscape:connector-curvature="0" sodipodi:nodetypes="ccccsccssc" fill="#D40000" d="M2027.861,84.416
			c7.145,0.473,10.867-5.629,11.596-10.438c0.434-0.765,0.67-0.55,0.836,0.043c0.35,6.174,5.875,11.219,10.993,10.528
			c8.327-0.106,13.39-9.375,11.966-17.219c-1.738-9.582-6.898-15.352-10.809-21.293c-4.42-6.152-10.371-15.039-12.289-19.316
			c0,0-6.049,9.205-13.918,20.029c-5.262,7.238-9.473,15.082-9.864,21.836C2015.923,76.302,2019.09,83.218,2027.861,84.416
			L2027.861,84.416z"/>
		<path id="path8590" inkscape:connector-curvature="0" sodipodi:nodetypes="ccccsccssc" fill="#D40000" d="M2138.542,84.416
			c7.144,0.473,10.867-5.629,11.594-10.438c0.435-0.765,0.673-0.55,0.838,0.043c0.351,6.174,5.875,11.219,10.992,10.528
			c8.328-0.106,13.392-9.375,11.967-17.219c-1.737-9.582-6.899-15.352-10.809-21.293c-4.42-6.152-10.373-15.039-12.289-19.316
			c0,0-6.049,9.205-13.918,20.029c-5.262,7.238-9.473,15.082-9.865,21.836C2126.606,76.302,2129.774,83.218,2138.542,84.416
			L2138.542,84.416z"/>
		<path id="path8656" inkscape:connector-curvature="0" sodipodi:nodetypes="cccccccc" fill="#D40000" d="M2180.025,53.802
			c-1.584,3.474-1.758,9.406,2.971,10.209c3.562,0.457,5.012-1.198,5.301-3.741c0.142-0.744,0.562-0.789,0.693,0.059
			c0.205,2.609,2.787,4.133,4.807,3.75c5.527-0.945,5.205-7.029,3.398-11.156c-2.73-5.479-5.601-8.938-8.244-14.451
			C2185.912,44.21,2182.443,48.875,2180.025,53.802L2180.025,53.802z"/>
	</g>
</g>
</svg>
