<?xml version="1.0" encoding="utf-8"?>
<!-- Generator: Adobe Illustrator 15.0.0, SVG Export Plug-In . SVG Version: 6.00 Build 0)  -->
<!DOCTYPE svg PUBLIC "-//W3C//DTD SVG 1.1//EN" "http://www.w3.org/Graphics/SVG/1.1/DTD/svg11.dtd">
<svg version="1.1"
	 id="svg4423" xmlns:sodipodi="http://sodipodi.sourceforge.net/DTD/sodipodi-0.dtd" sodipodi:docname="8H.svg" inkscape:version="0.48.1 r9760" xmlns:dc="http://purl.org/dc/elements/1.1/" xmlns:cc="http://creativecommons.org/ns#" xmlns:rdf="http://www.w3.org/1999/02/22-rdf-syntax-ns#" xmlns:svg="http://www.w3.org/2000/svg" xmlns:inkscape="http://www.inkscape.org/namespaces/inkscape"
	 xmlns="http://www.w3.org/2000/svg" xmlns:xlink="http://www.w3.org/1999/xlink" x="0px" y="0px" width="224.227px"
	 height="312.807px" viewBox="0 0 224.227 312.807" enable-background="new 0 0 224.227 312.807" xml:space="preserve">
<sodipodi:namedview  inkscape:window-x="803" inkscape:current-layer="layer1" inkscape:document-units="px" inkscape:window-height="925" borderopacity="1.0" id="base" inkscape:zoom="0.98994948" inkscape:cx="187.31121" inkscape:window-width="735" pagecolor="#ffffff" inkscape:cy="375.39925" inkscape:snap-page="true" inkscape:snap-global="true" inkscape:snap-bbox="true" bordercolor="#666666" showgrid="false" inkscape:pageopacity="0.0" inkscape:pageshadow="2" inkscape:window-y="66" inkscape:window-maximized="0">
	</sodipodi:namedview>
<g id="layer1" inkscape:groupmode="layer" inkscape:label="8H">
	<g id="g9013" transform="translate(-1313.6208,-113.66123)">
		<g id="g8854">
			<g id="g8836" transform="translate(-4683.8753,2918.9368)">
				<path id="rect6361" fill="#FFFFFF" stroke="#000000" stroke-width="0.9967" d="M6008.625-2804.777h201.969
					c5.871,0,10.631,4.759,10.631,10.63v290.55c0,5.871-4.76,10.629-10.631,10.629h-201.969c-5.871,0-10.63-4.758-10.63-10.629
					v-290.55C5997.995-2800.018,6002.754-2804.777,6008.625-2804.777z"/>
				<g id="g8646" transform="matrix(0.30106207,0,0,0.30106207,5370.0941,-1979.9322)">
					<path id="path7112" inkscape:connector-curvature="0" sodipodi:nodetypes="zcszsczzzssssssssss" fill="#D40000" d="
						M2108.348-2615.055c0.532-14.535,5.884-19.991,16.423-27.601c-8.408-5.965-11.95-14.74-11.236-22.213
						c1.732-18.094,15.979-27.147,31.506-26.751c15.528,0.396,28.915,12.501,29.956,25.648c0.908,11.438-2.559,16.948-10.818,22.972
						c9.809,8.109,16.076,13.452,15.839,27.766c-0.237,14.318-12.641,31.357-34.26,31.879s-37.938-17.169-37.407-31.701H2108.348
						L2108.348-2615.055z M2168.714-2615.01c0.928-13.16-10.925-22.038-24.292-22.177c-13.03-0.133-24.685,10.785-24.685,22.599
						c0,12.693,15.158,19.586,24.948,19.625C2156.583-2594.922,2167.913-2603.673,2168.714-2615.01L2168.714-2615.01z
						 M2164.432-2662.086c0.26-11.087-10.153-19.031-20.886-18.713c-9.553,0.286-19.667,7.444-19.673,16.712
						c-0.01,11.593,11.502,17.38,21.315,17.597C2154.092-2646.292,2164.238-2653.714,2164.432-2662.086z"/>
					<path id="path7128" inkscape:connector-curvature="0" sodipodi:nodetypes="zcszsczzzssssssssss" fill="#D40000" d="
						M2804.358-1828.801c-0.532,14.532-5.881,19.988-16.423,27.598c8.408,5.962,11.95,14.74,11.233,22.213
						c-1.729,18.094-15.979,27.144-31.5,26.748c-15.531-0.389-28.918-12.501-29.959-25.645
						c-0.908-11.437,2.559-16.952,10.821-22.972c-9.809-8.109-16.076-13.448-15.846-27.766c0.24-14.318,12.644-31.354,34.26-31.879
						c21.623-0.526,37.938,17.166,37.407,31.704H2804.358L2804.358-1828.801z M2743.992-1828.853
						c-0.928,13.163,10.925,22.038,24.299,22.181c13.027,0.136,24.675-10.782,24.685-22.602c0-12.689-15.161-19.586-24.951-19.618
						C2756.127-1848.944,2744.79-1840.193,2743.992-1828.853L2743.992-1828.853z M2748.274-1781.78
						c-0.26,11.087,10.156,19.034,20.883,18.71c9.556-0.279,19.67-7.435,19.68-16.699c0.007-11.593-11.502-17.38-21.318-17.6
						C2758.618-1797.577,2748.469-1790.148,2748.274-1781.78z"/>
				</g>
			</g>
		</g>
		<path id="path8634" inkscape:connector-curvature="0" sodipodi:nodetypes="cccccccc" fill="#D40000" d="M1323.701,177.07
			c-1.583-3.473-1.756-9.405,2.971-10.208c3.562-0.458,5.012,1.198,5.3,3.742c0.143,0.743,0.562,0.788,0.694-0.059
			c0.205-2.609,2.788-4.134,4.807-3.75c5.526,0.944,5.204,7.027,3.398,11.154c-2.731,5.479-5.602,8.938-8.245,14.452
			C1329.587,186.662,1326.12,181.998,1323.701,177.07L1323.701,177.07z"/>
		<path id="path8548" inkscape:connector-curvature="0" sodipodi:nodetypes="ccccsccssc" fill="#D40000" d="M1358.678,141.797
			c7.146-0.475,10.868,5.628,11.596,10.437c0.434,0.765,0.671,0.549,0.837-0.042c0.35-6.174,5.875-11.22,10.992-10.53
			c8.328,0.108,13.391,9.376,11.967,17.22c-1.737,9.582-6.899,15.352-10.809,21.293c-4.421,6.151-10.372,15.04-12.289,19.316
			c0,0-6.049-9.205-13.918-20.029c-5.262-7.238-9.473-15.082-9.864-21.835C1346.743,149.909,1349.91,142.993,1358.678,141.797
			L1358.678,141.797z"/>
		<path id="path8550" inkscape:connector-curvature="0" sodipodi:nodetypes="ccccsccssc" fill="#D40000" d="M1468.211,141.797
			c7.145-0.475,10.869,5.628,11.596,10.437c0.434,0.765,0.67,0.549,0.836-0.042c0.351-6.174,5.875-11.22,10.994-10.53
			c8.328,0.108,13.389,9.376,11.965,17.22c-1.738,9.582-6.897,15.352-10.807,21.293c-4.422,6.151-10.373,15.04-12.291,19.316
			c0,0-6.047-9.205-13.916-20.029c-5.263-7.238-9.476-15.082-9.865-21.835C1456.273,149.909,1459.441,142.993,1468.211,141.797
			L1468.211,141.797z"/>
		<path id="path8552" inkscape:connector-curvature="0" sodipodi:nodetypes="ccccsccssc" fill="#D40000" d="M1412.862,191.922
			c7.145-0.476,10.868,5.627,11.596,10.437c0.434,0.764,0.671,0.548,0.837-0.043c0.35-6.174,5.875-11.22,10.994-10.53
			c8.328,0.108,13.389,9.376,11.965,17.22c-1.738,9.581-6.898,15.352-10.808,21.293c-4.422,6.152-10.373,15.04-12.291,19.316
			c0,0-6.048-9.204-13.917-20.028c-5.262-7.239-9.474-15.083-9.864-21.836C1400.924,200.034,1404.091,193.117,1412.862,191.922
			L1412.862,191.922z"/>
		<path id="path8554" inkscape:connector-curvature="0" sodipodi:nodetypes="ccccsccssc" fill="#D40000" d="M1358.678,242.047
			c7.146-0.476,10.868,5.627,11.596,10.437c0.434,0.764,0.671,0.549,0.837-0.043c0.35-6.174,5.875-11.22,10.992-10.529
			c8.328,0.107,13.391,9.375,11.967,17.22c-1.737,9.581-6.899,15.35-10.809,21.292c-4.421,6.152-10.372,15.039-12.289,19.316
			c0,0-6.049-9.203-13.918-20.029c-5.262-7.238-9.473-15.082-9.864-21.835C1346.743,250.158,1349.91,243.241,1358.678,242.047
			L1358.678,242.047z"/>
		<path id="path8556" inkscape:connector-curvature="0" sodipodi:nodetypes="ccccsccssc" fill="#D40000" d="M1468.211,242.047
			c7.145-0.476,10.869,5.627,11.596,10.437c0.434,0.764,0.67,0.549,0.836-0.043c0.351-6.174,5.875-11.22,10.994-10.529
			c8.328,0.107,13.389,9.375,11.965,17.22c-1.738,9.581-6.897,15.35-10.807,21.292c-4.422,6.152-10.373,15.039-12.291,19.316
			c0,0-6.047-9.203-13.916-20.029c-5.263-7.238-9.476-15.082-9.865-21.835C1456.273,250.158,1459.441,243.241,1468.211,242.047
			L1468.211,242.047z"/>
		<path id="path8614" inkscape:connector-curvature="0" sodipodi:nodetypes="ccccsccssc" fill="#D40000" d="M1468.211,398.139
			c7.145,0.475,10.869-5.627,11.596-10.439c0.434-0.764,0.67-0.549,0.836,0.043c0.351,6.176,5.875,11.223,10.994,10.529
			c8.328-0.105,13.389-9.375,11.965-17.219c-1.738-9.58-6.897-15.35-10.807-21.293c-4.422-6.152-10.373-15.039-12.291-19.316
			c0,0-6.047,9.205-13.916,20.029c-5.263,7.238-9.476,15.082-9.865,21.836C1456.273,390.026,1459.441,396.942,1468.211,398.139
			L1468.211,398.139z"/>
		<path id="path8616" inkscape:connector-curvature="0" sodipodi:nodetypes="ccccsccssc" fill="#D40000" d="M1412.862,348.838
			c7.145,0.475,10.868-5.627,11.596-10.438c0.434-0.764,0.671-0.549,0.837,0.043c0.35,6.174,5.875,11.221,10.994,10.529
			c8.328-0.107,13.389-9.375,11.965-17.219c-1.738-9.582-6.898-15.352-10.808-21.293c-4.422-6.152-10.373-15.039-12.291-19.316
			c0,0-6.048,9.205-13.917,20.029c-5.262,7.238-9.474,15.082-9.864,21.836C1400.924,340.727,1404.091,347.643,1412.862,348.838
			L1412.862,348.838z"/>
		<path id="path8618" inkscape:connector-curvature="0" sodipodi:nodetypes="ccccsccssc" fill="#D40000" d="M1358.678,398.139
			c7.146,0.475,10.868-5.627,11.596-10.439c0.434-0.764,0.671-0.549,0.837,0.043c0.35,6.176,5.875,11.223,10.992,10.529
			c8.328-0.105,13.391-9.375,11.967-17.219c-1.737-9.58-6.899-15.35-10.809-21.293c-4.421-6.152-10.372-15.039-12.289-19.316
			c0,0-6.049,9.205-13.918,20.029c-5.262,7.238-9.473,15.082-9.864,21.836C1346.743,390.026,1349.91,396.942,1358.678,398.139
			L1358.678,398.139z"/>
		<path id="path8664" inkscape:connector-curvature="0" sodipodi:nodetypes="cccccccc" fill="#D40000" d="M1512.516,367.928
			c-1.584,3.473-1.758,9.406,2.971,10.209c3.562,0.459,5.013-1.199,5.302-3.742c0.141-0.742,0.561-0.789,0.692,0.059
			c0.205,2.609,2.787,4.133,4.808,3.75c5.526-0.945,5.205-7.029,3.397-11.156c-2.729-5.479-5.6-8.938-8.244-14.451
			C1518.402,358.336,1514.934,363,1512.516,367.928L1512.516,367.928z"/>
	</g>
</g>
</svg>
